<svg id="svg" version="1.1" xmlns="http://www.w3.org/2000/svg" width="400" height="400" viewBox="0, 0, 400,400">
    <g id="svgg">
        <path id="path0"
              d="M193.400 31.200 C 193.264 31.420,192.533 31.600,191.776 31.600 C 191.019 31.600,190.400 31.780,190.400 32.000 C 190.400 32.220,189.860 32.400,189.200 32.400 C 188.540 32.400,188.000 32.580,188.000 32.800 C 188.000 33.020,187.640 33.200,187.200 33.200 C 186.760 33.200,186.400 33.380,186.400 33.600 C 186.400 33.820,186.040 34.000,185.600 34.000 C 185.160 34.000,184.800 34.180,184.800 34.400 C 184.800 34.620,184.440 34.800,184.000 34.800 C 183.560 34.800,183.200 34.980,183.200 35.200 C 183.200 35.420,182.840 35.600,182.400 35.600 C 181.960 35.600,181.600 35.780,181.600 36.000 C 181.600 36.220,181.312 36.400,180.960 36.400 C 180.609 36.400,179.817 36.940,179.200 37.600 C 178.583 38.260,177.886 38.800,177.651 38.800 C 177.131 38.800,173.200 42.779,173.200 43.305 C 173.200 43.511,172.660 44.183,172.000 44.800 C 171.340 45.417,170.800 46.209,170.800 46.560 C 170.800 46.912,170.620 47.200,170.400 47.200 C 170.180 47.200,170.000 47.520,170.000 47.912 C 170.000 48.303,169.640 48.883,169.200 49.200 C 168.730 49.539,168.400 50.235,168.400 50.888 C 168.400 51.500,168.220 52.000,168.000 52.000 C 167.780 52.000,167.600 52.360,167.600 52.800 C 167.600 53.240,167.420 53.600,167.200 53.600 C 166.980 53.600,166.800 54.140,166.800 54.800 C 166.800 55.460,166.620 56.000,166.400 56.000 C 166.180 56.000,166.000 56.630,166.000 57.400 C 166.000 58.170,165.820 58.800,165.600 58.800 C 165.356 58.800,165.200 60.667,165.200 63.600 C 165.200 68.133,165.156 68.400,164.400 68.400 C 163.960 68.400,163.600 68.580,163.600 68.800 C 163.600 69.020,163.240 69.200,162.800 69.200 C 162.360 69.200,162.000 69.380,162.000 69.600 C 162.000 69.820,161.640 70.000,161.200 70.000 C 160.760 70.000,160.400 70.180,160.400 70.400 C 160.400 70.620,160.130 70.800,159.800 70.800 C 159.470 70.800,159.200 70.980,159.200 71.200 C 159.200 71.420,158.840 71.600,158.400 71.600 C 157.960 71.600,157.600 71.780,157.600 72.000 C 157.600 72.220,157.240 72.400,156.800 72.400 C 156.360 72.400,156.000 72.580,156.000 72.800 C 156.000 73.020,155.640 73.200,155.200 73.200 C 154.760 73.200,154.400 73.380,154.400 73.600 C 154.400 73.820,154.040 74.000,153.600 74.000 C 153.160 74.000,152.800 74.158,152.800 74.350 C 152.800 74.677,150.566 75.372,149.900 75.254 C 149.735 75.224,149.600 75.380,149.600 75.600 C 149.600 75.820,149.364 76.000,149.075 76.000 C 148.787 76.000,148.164 76.360,147.692 76.800 C 147.220 77.240,146.556 77.600,146.217 77.600 C 145.878 77.600,145.600 77.780,145.600 78.000 C 145.600 78.220,145.358 78.400,145.062 78.400 C 144.766 78.400,144.198 78.760,143.800 79.200 C 143.402 79.640,142.835 80.000,142.541 80.000 C 142.247 80.000,141.782 80.360,141.507 80.800 C 141.232 81.240,140.731 81.600,140.392 81.600 C 140.054 81.600,139.517 81.960,139.200 82.400 C 138.883 82.840,138.343 83.200,138.000 83.200 C 137.657 83.200,137.117 83.560,136.800 84.000 C 136.483 84.440,135.943 84.800,135.600 84.800 C 135.257 84.800,134.717 85.160,134.400 85.600 C 134.083 86.040,133.575 86.400,133.272 86.400 C 132.969 86.400,132.217 86.940,131.600 87.600 C 130.983 88.260,130.273 88.800,130.021 88.800 C 129.261 88.800,127.600 90.708,127.600 91.582 C 127.600 92.032,127.780 92.400,128.000 92.400 C 128.220 92.400,128.400 92.684,128.400 93.031 C 128.400 93.379,129.120 94.354,130.000 95.200 C 130.880 96.046,131.600 96.949,131.600 97.208 C 131.600 97.467,132.140 98.183,132.800 98.800 C 133.460 99.417,134.000 100.137,134.000 100.400 C 134.000 100.663,134.540 101.383,135.200 102.000 C 135.860 102.617,136.400 103.337,136.400 103.600 C 136.400 103.863,136.940 104.583,137.600 105.200 C 138.260 105.817,138.800 106.569,138.800 106.872 C 138.800 107.175,139.188 107.688,139.662 108.012 C 140.136 108.335,140.889 109.005,141.334 109.500 C 142.387 110.669,143.398 110.639,144.636 109.400 C 145.186 108.850,145.948 108.400,146.330 108.400 C 146.711 108.400,147.283 108.040,147.600 107.600 C 147.917 107.160,148.425 106.800,148.728 106.800 C 149.031 106.800,149.783 106.260,150.400 105.600 C 151.017 104.940,151.769 104.400,152.072 104.400 C 152.375 104.400,152.883 104.040,153.200 103.600 C 153.517 103.160,154.097 102.800,154.488 102.800 C 154.880 102.800,155.200 102.620,155.200 102.400 C 155.200 102.180,155.520 102.000,155.912 102.000 C 156.303 102.000,156.883 101.640,157.200 101.200 C 157.517 100.760,158.007 100.400,158.288 100.400 C 158.570 100.400,158.800 100.220,158.800 100.000 C 158.800 99.780,159.120 99.600,159.512 99.600 C 159.903 99.600,160.483 99.240,160.800 98.800 C 161.117 98.360,161.697 98.000,162.088 98.000 C 162.480 98.000,162.800 97.820,162.800 97.600 C 162.800 97.380,163.160 97.200,163.600 97.200 C 164.040 97.200,164.400 97.020,164.400 96.800 C 164.400 96.580,164.720 96.400,165.112 96.400 C 165.503 96.400,166.083 96.040,166.400 95.600 C 166.717 95.160,167.297 94.800,167.688 94.800 C 168.080 94.800,168.400 94.620,168.400 94.400 C 168.400 94.180,168.760 94.000,169.200 94.000 C 169.640 94.000,170.000 93.820,170.000 93.600 C 170.000 93.380,170.360 93.200,170.800 93.200 C 171.240 93.200,171.600 93.020,171.600 92.800 C 171.600 92.580,172.121 92.400,172.757 92.400 C 174.058 92.400,174.231 92.112,174.587 89.351 C 174.838 87.407,175.284 85.239,176.058 82.200 C 176.967 78.634,177.307 77.353,177.598 76.400 C 177.766 75.850,178.307 74.050,178.799 72.400 C 179.292 70.750,179.838 69.040,180.011 68.600 C 180.185 68.160,181.171 65.640,182.201 63.000 C 185.001 55.826,188.636 48.633,193.315 41.009 C 194.082 39.759,196.650 36.002,198.378 33.600 C 199.249 32.390,199.970 31.265,199.981 31.100 C 200.010 30.645,193.684 30.741,193.400 31.200 M45.200 38.028 C 43.550 39.775,41.966 41.428,41.680 41.702 C 35.308 47.809,34.800 48.391,34.800 49.593 C 34.800 51.187,83.768 100.419,85.310 100.375 C 85.876 100.358,87.145 99.338,88.800 97.567 C 91.776 94.383,93.146 93.005,98.300 88.014 C 103.231 83.238,103.231 83.161,98.300 78.386 C 96.265 76.416,93.927 74.128,93.104 73.302 C 92.282 72.476,88.795 68.987,85.356 65.548 C 77.067 57.261,76.084 56.276,68.542 48.693 C 60.832 40.941,59.362 39.600,58.578 39.600 C 57.904 39.600,52.425 36.869,50.600 35.624 C 48.821 34.410,48.472 34.566,45.200 38.028 M117.800 39.359 C 112.785 41.781,108.785 43.128,102.400 44.547 C 98.211 45.478,98.200 45.484,98.075 46.740 C 98.005 47.442,98.138 48.000,98.375 48.000 C 98.609 48.000,98.800 48.540,98.800 49.200 C 98.800 49.860,98.980 50.400,99.200 50.400 C 99.420 50.400,99.600 50.940,99.600 51.600 C 99.600 52.260,99.780 52.800,100.000 52.800 C 100.220 52.800,100.400 53.340,100.400 54.000 C 100.400 54.660,100.580 55.200,100.800 55.200 C 101.020 55.200,101.200 55.740,101.200 56.400 C 101.200 57.060,101.380 57.600,101.600 57.600 C 101.820 57.600,102.000 58.050,102.000 58.600 C 102.000 59.150,102.180 59.600,102.400 59.600 C 102.620 59.600,102.800 60.140,102.800 60.800 C 102.800 61.460,102.980 62.000,103.200 62.000 C 103.420 62.000,103.600 62.540,103.600 63.200 C 103.600 63.860,103.780 64.400,104.000 64.400 C 104.220 64.400,104.400 64.940,104.400 65.600 C 104.400 66.260,104.580 66.800,104.800 66.800 C 105.020 66.800,105.200 67.340,105.200 68.000 C 105.200 68.660,105.380 69.200,105.600 69.200 C 105.820 69.200,106.000 69.560,106.000 70.000 C 106.000 70.681,106.267 70.800,107.800 70.800 C 108.790 70.800,109.600 70.620,109.600 70.400 C 109.600 70.180,110.140 70.000,110.800 70.000 C 111.460 70.000,112.000 69.820,112.000 69.600 C 112.000 69.380,112.540 69.200,113.200 69.200 C 113.860 69.200,114.400 69.020,114.400 68.800 C 114.400 68.580,114.940 68.400,115.600 68.400 C 116.260 68.400,116.800 68.220,116.800 68.000 C 116.800 67.780,117.340 67.600,118.000 67.600 C 118.660 67.600,119.200 67.420,119.200 67.200 C 119.200 66.980,119.740 66.800,120.400 66.800 C 121.060 66.800,121.600 66.620,121.600 66.400 C 121.600 66.180,122.140 66.000,122.800 66.000 C 123.460 66.000,124.000 65.820,124.000 65.600 C 124.000 65.380,124.450 65.200,125.000 65.200 C 125.550 65.200,126.000 65.020,126.000 64.800 C 126.000 64.580,126.540 64.400,127.200 64.400 C 127.860 64.400,128.400 64.220,128.400 64.000 C 128.400 63.780,128.760 63.600,129.200 63.600 C 129.822 63.600,130.000 63.333,130.000 62.400 C 130.000 61.740,129.820 61.200,129.600 61.200 C 129.380 61.200,129.200 60.750,129.200 60.200 C 129.200 59.650,129.020 59.200,128.800 59.200 C 128.580 59.200,128.400 58.660,128.400 58.000 C 128.400 57.340,128.220 56.800,128.000 56.800 C 127.780 56.800,127.600 56.260,127.600 55.600 C 127.600 54.940,127.420 54.400,127.200 54.400 C 126.980 54.400,126.800 53.860,126.800 53.200 C 126.800 52.540,126.620 52.000,126.400 52.000 C 126.180 52.000,126.000 51.460,126.000 50.800 C 126.000 50.140,125.841 49.600,125.646 49.600 C 125.451 49.600,125.169 48.613,125.018 47.406 C 124.867 46.200,124.577 45.109,124.372 44.983 C 124.167 44.856,124.000 44.324,124.000 43.800 C 124.000 43.276,123.820 42.736,123.600 42.600 C 123.380 42.464,123.200 41.913,123.200 41.376 C 123.200 40.839,123.020 40.400,122.800 40.400 C 122.580 40.400,122.400 39.860,122.400 39.200 C 122.400 37.583,121.407 37.618,117.800 39.359 M21.600 88.800 C 21.600 89.240,21.420 89.600,21.200 89.600 C 20.980 89.600,20.800 90.039,20.800 90.576 C 20.800 91.113,20.620 91.664,20.400 91.800 C 20.180 91.936,20.000 92.487,20.000 93.024 C 20.000 93.561,19.820 94.000,19.600 94.000 C 19.380 94.000,19.200 94.540,19.200 95.200 C 19.200 95.860,19.020 96.400,18.800 96.400 C 18.580 96.400,18.400 96.940,18.400 97.600 C 18.400 98.260,18.220 98.800,18.000 98.800 C 17.780 98.800,17.600 99.340,17.600 100.000 C 17.600 100.660,17.420 101.200,17.200 101.200 C 16.980 101.200,16.800 101.740,16.800 102.400 C 16.800 103.060,16.620 103.600,16.400 103.600 C 16.180 103.600,16.000 104.140,16.000 104.800 C 16.000 105.460,15.820 106.000,15.600 106.000 C 15.380 106.000,15.200 106.540,15.200 107.200 C 15.200 107.860,15.020 108.400,14.800 108.400 C 14.580 108.400,14.400 109.210,14.400 110.200 C 14.400 111.933,14.444 112.000,15.600 112.000 C 16.260 112.000,16.800 112.180,16.800 112.400 C 16.800 112.620,17.340 112.800,18.000 112.800 C 18.660 112.800,19.200 112.980,19.200 113.200 C 19.200 113.420,19.740 113.600,20.400 113.600 C 21.060 113.600,21.600 113.780,21.600 114.000 C 21.600 114.220,22.140 114.400,22.800 114.400 C 23.460 114.400,24.000 114.580,24.000 114.800 C 24.000 115.020,24.439 115.200,24.976 115.200 C 25.513 115.200,26.064 115.380,26.200 115.600 C 26.336 115.820,26.887 116.000,27.424 116.000 C 27.961 116.000,28.400 116.180,28.400 116.400 C 28.400 116.620,28.940 116.800,29.600 116.800 C 30.260 116.800,30.800 116.980,30.800 117.200 C 30.800 117.420,31.340 117.600,32.000 117.600 C 32.660 117.600,33.200 117.780,33.200 118.000 C 33.200 118.220,33.740 118.400,34.400 118.400 C 35.060 118.400,35.600 118.580,35.600 118.800 C 35.600 119.020,36.140 119.200,36.800 119.200 C 37.460 119.200,38.000 119.380,38.000 119.600 C 38.000 119.820,38.540 120.000,39.200 120.000 C 39.860 120.000,40.400 120.180,40.400 120.400 C 40.400 120.620,40.951 120.800,41.624 120.800 C 42.337 120.800,42.744 120.967,42.600 121.200 C 42.456 121.433,42.863 121.600,43.576 121.600 C 44.249 121.600,44.800 121.780,44.800 122.000 C 44.800 122.220,45.340 122.400,46.000 122.400 C 46.660 122.400,47.200 122.580,47.200 122.800 C 47.200 123.020,47.740 123.200,48.400 123.200 C 49.060 123.200,49.600 123.380,49.600 123.600 C 49.600 123.820,50.140 124.000,50.800 124.000 C 51.460 124.000,52.000 124.162,52.000 124.361 C 52.000 124.559,53.080 124.847,54.400 125.000 C 55.720 125.153,56.800 125.441,56.800 125.639 C 56.800 125.838,57.239 126.000,57.776 126.000 C 58.313 126.000,58.864 126.180,59.000 126.400 C 59.136 126.620,59.687 126.800,60.224 126.800 C 60.761 126.800,61.200 126.980,61.200 127.200 C 61.200 127.422,62.267 127.600,63.600 127.600 L 66.000 127.600 66.000 126.400 C 66.000 125.740,66.180 125.200,66.400 125.200 C 66.620 125.200,66.800 124.750,66.800 124.200 C 66.800 123.650,66.980 123.200,67.200 123.200 C 67.420 123.200,67.600 122.660,67.600 122.000 C 67.600 121.340,67.780 120.800,68.000 120.800 C 68.220 120.800,68.400 120.260,68.400 119.600 C 68.400 118.940,68.580 118.400,68.800 118.400 C 69.020 118.400,69.200 117.860,69.200 117.200 C 69.200 116.540,69.380 116.000,69.600 116.000 C 69.820 116.000,70.000 115.460,70.000 114.800 C 70.000 114.140,70.180 113.600,70.400 113.600 C 70.620 113.600,70.800 113.060,70.800 112.400 C 70.800 111.740,70.980 111.200,71.200 111.200 C 71.420 111.200,71.600 110.660,71.600 110.000 C 71.600 109.340,71.780 108.800,72.000 108.800 C 72.220 108.800,72.400 108.350,72.400 107.800 C 72.400 107.250,72.580 106.800,72.800 106.800 C 73.020 106.800,73.200 106.260,73.200 105.600 C 73.200 104.667,73.022 104.400,72.400 104.400 C 71.960 104.400,71.600 104.220,71.600 104.000 C 71.600 103.780,71.060 103.600,70.400 103.600 C 69.740 103.600,69.200 103.420,69.200 103.200 C 69.200 102.980,68.660 102.800,68.000 102.800 C 67.340 102.800,66.800 102.620,66.800 102.400 C 66.800 102.180,66.260 102.000,65.600 102.000 C 64.940 102.000,64.400 101.820,64.400 101.600 C 64.400 101.380,63.860 101.200,63.200 101.200 C 62.540 101.200,62.000 101.020,62.000 100.800 C 62.000 100.580,61.460 100.400,60.800 100.400 C 60.140 100.400,59.600 100.220,59.600 100.000 C 59.600 99.780,59.150 99.600,58.600 99.600 C 58.050 99.600,57.600 99.420,57.600 99.200 C 57.600 98.980,57.060 98.800,56.400 98.800 C 55.740 98.800,55.200 98.620,55.200 98.400 C 55.200 98.180,54.660 98.000,54.000 98.000 C 53.340 98.000,52.800 97.820,52.800 97.600 C 52.800 97.380,52.260 97.200,51.600 97.200 C 50.940 97.200,50.400 97.020,50.400 96.800 C 50.400 96.580,49.860 96.400,49.200 96.400 C 48.540 96.400,48.000 96.220,48.000 96.000 C 48.000 95.780,47.460 95.600,46.800 95.600 C 46.140 95.600,45.600 95.420,45.600 95.200 C 45.600 94.980,45.060 94.800,44.400 94.800 C 43.740 94.800,43.200 94.620,43.200 94.400 C 43.200 94.180,42.761 94.000,42.224 94.000 C 41.687 94.000,41.136 93.820,41.000 93.600 C 40.864 93.380,40.313 93.200,39.776 93.200 C 39.239 93.200,38.800 93.059,38.800 92.887 C 38.800 92.715,38.323 92.535,37.740 92.487 C 37.158 92.439,36.478 92.231,36.230 92.025 C 35.983 91.820,34.840 91.527,33.690 91.374 C 32.541 91.222,31.600 90.940,31.600 90.748 C 31.600 90.557,31.060 90.400,30.400 90.400 C 29.740 90.400,29.200 90.220,29.200 90.000 C 29.200 89.780,28.660 89.600,28.000 89.600 C 27.340 89.600,26.800 89.420,26.800 89.200 C 26.800 88.980,26.350 88.800,25.800 88.800 C 25.250 88.800,24.800 88.620,24.800 88.400 C 24.800 88.180,24.080 88.000,23.200 88.000 C 21.867 88.000,21.600 88.133,21.600 88.800 M91.780 126.540 C 91.021 127.278,90.400 128.105,90.400 128.380 C 90.400 128.654,89.860 129.383,89.200 130.000 C 88.540 130.617,88.000 131.369,88.000 131.672 C 88.000 131.975,87.640 132.483,87.200 132.800 C 86.760 133.117,86.400 133.657,86.400 134.000 C 86.400 134.343,86.040 134.883,85.600 135.200 C 85.160 135.517,84.800 136.057,84.800 136.400 C 84.800 136.743,84.440 137.283,84.000 137.600 C 83.560 137.917,83.200 138.431,83.200 138.741 C 83.200 139.052,82.876 139.597,82.480 139.953 C 82.083 140.309,81.440 141.286,81.049 142.124 C 80.659 142.962,80.083 143.747,79.770 143.867 C 79.456 143.987,79.200 144.426,79.200 144.843 C 79.200 145.259,79.020 145.600,78.800 145.600 C 78.580 145.600,78.400 145.920,78.400 146.312 C 78.400 146.703,78.040 147.283,77.600 147.600 C 77.160 147.917,76.800 148.409,76.800 148.694 C 76.800 149.283,75.966 150.879,75.466 151.245 C 75.282 151.379,75.143 151.603,75.156 151.743 C 75.229 152.494,74.651 154.400,74.350 154.400 C 74.158 154.400,74.000 154.760,74.000 155.200 C 74.000 155.640,73.820 156.000,73.600 156.000 C 73.380 156.000,73.200 156.360,73.200 156.800 C 73.200 157.240,73.054 157.600,72.875 157.600 C 72.696 157.600,72.302 158.230,72.000 159.000 C 71.698 159.770,71.304 160.400,71.125 160.400 C 70.946 160.400,70.800 160.683,70.800 161.029 C 70.800 162.154,69.716 162.800,67.829 162.800 C 66.823 162.800,66.000 162.980,66.000 163.200 C 66.000 163.431,64.741 163.600,63.024 163.600 C 61.387 163.600,59.936 163.780,59.800 164.000 C 59.664 164.220,59.113 164.400,58.576 164.400 C 58.039 164.400,57.600 164.580,57.600 164.800 C 57.600 165.020,57.060 165.200,56.400 165.200 C 55.740 165.200,55.200 165.380,55.200 165.600 C 55.200 165.820,54.660 166.000,54.000 166.000 C 53.340 166.000,52.800 166.180,52.800 166.400 C 52.800 166.620,52.440 166.800,52.000 166.800 C 51.560 166.800,51.200 166.980,51.200 167.200 C 51.200 167.420,50.880 167.600,50.488 167.600 C 50.097 167.600,49.517 167.960,49.200 168.400 C 48.883 168.840,48.375 169.200,48.072 169.200 C 47.769 169.200,47.017 169.740,46.400 170.400 C 45.783 171.060,45.064 171.600,44.800 171.600 C 44.278 171.600,40.418 175.588,40.407 176.140 C 40.403 176.326,39.860 176.983,39.200 177.600 C 38.540 178.217,38.000 179.009,38.000 179.360 C 38.000 179.712,37.820 180.000,37.600 180.000 C 37.380 180.000,37.200 180.360,37.200 180.800 C 37.200 181.240,37.020 181.600,36.800 181.600 C 36.580 181.600,36.400 181.960,36.400 182.400 C 36.400 182.840,36.220 183.200,36.000 183.200 C 35.780 183.200,35.600 183.560,35.600 184.000 C 35.600 184.440,35.420 184.800,35.200 184.800 C 34.980 184.800,34.800 185.160,34.800 185.600 C 34.800 186.040,34.620 186.400,34.400 186.400 C 34.180 186.400,34.000 187.120,34.000 188.000 C 34.000 188.880,33.820 189.600,33.600 189.600 C 33.380 189.600,33.200 190.410,33.200 191.400 C 33.200 192.390,33.020 193.200,32.800 193.200 C 32.551 193.200,32.400 195.467,32.400 199.200 C 32.400 202.933,32.551 205.200,32.800 205.200 C 33.020 205.200,33.200 206.010,33.200 207.000 C 33.200 207.990,33.380 208.800,33.600 208.800 C 33.820 208.800,34.000 209.340,34.000 210.000 C 34.000 210.660,34.180 211.200,34.400 211.200 C 34.620 211.200,34.800 211.740,34.800 212.400 C 34.800 213.060,34.980 213.600,35.200 213.600 C 35.420 213.600,35.600 213.960,35.600 214.400 C 35.600 214.840,35.780 215.200,36.000 215.200 C 36.220 215.200,36.400 215.560,36.400 216.000 C 36.400 216.440,36.580 216.800,36.800 216.800 C 37.020 216.800,37.200 217.120,37.200 217.512 C 37.200 217.903,37.560 218.483,38.000 218.800 C 38.440 219.117,38.800 219.613,38.800 219.902 C 38.800 220.190,39.430 221.057,40.200 221.827 C 40.970 222.597,41.600 223.495,41.600 223.823 C 41.600 224.151,42.065 224.597,42.634 224.813 C 43.203 225.029,44.359 225.925,45.203 226.803 C 46.047 227.681,46.982 228.400,47.280 228.400 C 47.579 228.400,48.083 228.760,48.400 229.200 C 48.717 229.640,49.297 230.000,49.688 230.000 C 50.080 230.000,50.400 230.180,50.400 230.400 C 50.400 230.620,50.760 230.800,51.200 230.800 C 51.640 230.800,52.000 230.980,52.000 231.200 C 52.000 231.420,51.820 231.600,51.600 231.600 C 51.339 231.600,51.200 238.133,51.200 250.400 C 51.200 262.667,51.339 269.200,51.600 269.200 C 51.861 269.200,52.000 275.867,52.000 288.400 C 52.000 300.933,52.139 307.600,52.400 307.600 C 52.651 307.600,52.800 310.200,52.800 314.600 L 52.800 321.600 34.400 321.600 C 22.400 321.600,16.000 321.461,16.000 321.200 C 16.000 320.947,13.067 320.800,8.000 320.800 L 0.000 320.800 0.000 333.200 L 0.000 345.600 9.200 345.600 C 15.067 345.600,18.400 345.745,18.400 346.000 C 18.400 346.261,24.533 346.400,36.000 346.400 L 53.600 346.400 53.600 365.200 C 53.600 377.467,53.739 384.000,54.000 384.000 C 54.253 384.000,54.400 386.933,54.400 392.000 L 54.400 400.000 66.800 400.000 L 79.200 400.000 79.200 391.600 C 79.200 386.267,79.054 383.200,78.800 383.200 C 78.539 383.200,78.400 376.933,78.400 365.200 L 78.400 347.200 85.776 347.200 C 90.263 347.200,93.250 347.357,93.400 347.600 C 93.626 347.966,121.200 348.223,121.200 347.859 C 121.200 345.543,125.401 332.221,127.776 327.007 C 128.278 325.903,128.817 324.595,128.972 324.100 L 129.254 323.200 110.827 323.200 C 98.809 323.200,92.400 323.061,92.400 322.800 C 92.400 322.548,89.667 322.400,85.000 322.400 L 77.600 322.400 77.600 314.600 C 77.600 309.667,77.453 306.800,77.200 306.800 C 76.939 306.800,76.800 300.133,76.800 287.600 C 76.800 275.067,76.661 268.400,76.400 268.400 C 76.140 268.400,76.000 262.400,76.000 251.200 L 76.000 234.000 77.200 234.000 C 77.860 234.000,78.400 233.820,78.400 233.600 C 78.400 233.380,78.940 233.200,79.600 233.200 C 80.260 233.200,80.800 233.020,80.800 232.800 C 80.800 232.580,81.428 232.400,82.196 232.400 C 83.511 232.400,85.420 234.229,115.590 264.400 C 133.189 282.000,147.775 296.400,148.001 296.400 C 148.228 296.400,149.896 294.952,151.707 293.182 C 153.741 291.194,157.533 288.250,161.626 285.482 L 168.252 281.000 165.120 278.000 C 163.398 276.350,161.226 274.233,160.294 273.295 C 159.362 272.357,155.833 268.824,152.451 265.444 C 149.069 262.063,145.199 258.189,143.851 256.835 C 142.503 255.480,138.430 251.419,134.800 247.811 C 131.170 244.203,127.503 240.541,126.652 239.673 C 125.371 238.367,119.524 232.510,110.304 223.296 C 102.004 215.002,100.178 212.800,101.600 212.800 C 101.820 212.800,102.000 212.440,102.000 212.000 C 102.000 211.560,102.180 211.200,102.400 211.200 C 102.620 211.200,102.800 210.581,102.800 209.824 C 102.800 209.067,102.980 208.336,103.200 208.200 C 103.420 208.064,103.600 207.153,103.600 206.176 C 103.600 205.199,103.780 204.400,104.000 204.400 C 104.246 204.400,104.400 202.400,104.400 199.200 C 104.400 196.000,104.246 194.000,104.000 194.000 C 103.780 194.000,103.600 193.010,103.600 191.800 C 103.600 190.590,103.420 189.600,103.200 189.600 C 102.980 189.600,102.800 189.060,102.800 188.400 C 102.800 187.740,102.620 187.200,102.400 187.200 C 102.180 187.200,102.000 186.660,102.000 186.000 C 102.000 185.340,101.820 184.800,101.600 184.800 C 101.380 184.800,101.200 184.440,101.200 184.000 C 101.200 183.560,101.020 183.200,100.800 183.200 C 100.580 183.200,100.400 182.840,100.400 182.400 C 100.400 181.960,100.220 181.600,100.000 181.600 C 99.780 181.600,99.600 181.280,99.600 180.888 C 99.600 180.497,99.240 179.917,98.800 179.600 C 98.360 179.283,98.000 178.779,98.000 178.480 C 98.000 178.182,97.280 177.246,96.400 176.400 C 95.520 175.554,94.800 174.735,94.800 174.578 C 94.800 174.422,94.395 173.933,93.900 173.493 C 93.290 172.950,93.161 172.635,93.500 172.513 C 93.775 172.414,94.000 171.988,94.000 171.567 C 94.000 171.145,94.180 170.800,94.400 170.800 C 94.620 170.800,94.800 170.440,94.800 170.000 C 94.800 169.560,94.980 169.200,95.200 169.200 C 95.420 169.200,95.600 168.840,95.600 168.400 C 95.600 167.960,95.780 167.600,96.000 167.600 C 96.220 167.600,96.400 167.240,96.400 166.800 C 96.400 166.360,96.580 166.000,96.800 166.000 C 97.020 166.000,97.200 165.640,97.200 165.200 C 97.200 164.760,97.380 164.400,97.600 164.400 C 97.820 164.400,98.000 164.040,98.000 163.600 C 98.000 163.160,98.180 162.800,98.400 162.800 C 98.620 162.800,98.800 162.440,98.800 162.000 C 98.800 161.560,98.980 161.200,99.200 161.200 C 99.420 161.200,99.600 160.880,99.600 160.488 C 99.600 160.097,99.960 159.517,100.400 159.200 C 100.840 158.883,101.200 158.393,101.200 158.112 C 101.200 157.830,101.380 157.600,101.600 157.600 C 101.820 157.600,102.000 157.280,102.000 156.888 C 102.000 156.497,102.360 155.917,102.800 155.600 C 103.240 155.283,103.600 154.743,103.600 154.400 C 103.600 154.057,103.960 153.517,104.400 153.200 C 104.840 152.883,105.200 152.343,105.200 152.000 C 105.200 151.657,105.560 151.117,106.000 150.800 C 106.440 150.483,106.800 149.969,106.800 149.659 C 106.800 149.348,107.131 148.803,107.536 148.447 C 107.941 148.091,108.394 147.305,108.544 146.700 C 108.693 146.095,108.992 145.600,109.208 145.600 C 109.423 145.600,109.600 145.312,109.600 144.960 C 109.600 144.609,110.140 143.817,110.800 143.200 C 112.535 141.579,112.230 138.800,110.317 138.800 C 110.020 138.800,109.512 138.423,109.188 137.963 C 108.054 136.348,107.302 135.600,106.814 135.600 C 106.543 135.600,105.817 135.060,105.200 134.400 C 104.583 133.740,103.863 133.200,103.600 133.200 C 103.337 133.200,102.617 132.660,102.000 132.000 C 101.383 131.340,100.663 130.800,100.400 130.800 C 100.137 130.800,99.417 130.260,98.800 129.600 C 98.183 128.940,97.467 128.400,97.208 128.400 C 96.949 128.400,96.046 127.680,95.200 126.800 C 93.347 124.871,93.488 124.882,91.780 126.540 M158.200 140.813 C 156.454 142.444,142.485 156.362,142.073 156.882 C 141.534 157.563,208.494 225.239,209.103 224.630 C 209.447 224.287,208.456 217.181,207.509 213.200 C 205.878 206.338,203.254 200.814,197.839 192.845 C 193.755 186.836,193.957 187.148,191.841 183.600 C 186.012 173.825,180.729 162.400,182.039 162.400 C 182.250 162.400,181.833 161.795,181.111 161.056 C 180.390 160.317,179.710 159.754,179.600 159.804 C 179.490 159.854,178.410 158.831,177.200 157.531 C 174.234 154.343,162.377 142.424,161.053 141.300 C 159.947 140.360,158.880 140.178,158.200 140.813 "
              stroke="none" fill="#fc5c4c" fill-rule="evenodd"></path>
        <path id="path1"
              d="M320.800 3.576 C 320.800 5.543,320.980 7.264,321.200 7.400 C 321.458 7.559,321.600 14.404,321.600 26.624 C 321.600 39.008,321.739 45.600,322.000 45.600 C 322.237 45.600,322.400 47.067,322.400 49.200 L 322.400 52.800 320.400 52.800 C 319.238 52.800,318.400 52.619,318.400 52.369 C 318.400 52.067,314.006 51.974,303.700 52.058 C 290.813 52.163,278.063 52.526,280.100 52.730 C 280.510 52.771,280.800 53.131,280.800 53.600 C 280.800 54.040,280.980 54.400,281.200 54.400 C 281.420 54.400,281.600 54.580,281.600 54.800 C 281.600 55.020,281.240 55.200,280.800 55.200 C 280.178 55.200,280.000 55.467,280.000 56.400 C 280.000 57.060,279.820 57.600,279.600 57.600 C 278.693 57.600,279.184 59.599,280.100 59.636 C 280.794 59.664,280.702 59.758,279.700 60.048 C 278.800 60.307,278.400 60.665,278.400 61.211 C 278.400 61.645,278.220 62.000,278.000 62.000 C 277.780 62.000,277.600 61.820,277.600 61.600 C 277.600 61.380,277.330 61.200,277.000 61.200 C 276.277 61.200,276.192 62.659,276.900 62.913 C 277.239 63.035,277.110 63.350,276.500 63.893 C 275.583 64.709,275.276 66.000,276.000 66.000 C 276.220 66.000,276.400 66.360,276.400 66.800 C 276.400 67.240,276.233 67.600,276.028 67.600 C 275.823 67.600,275.578 68.005,275.482 68.500 C 275.357 69.151,275.294 69.040,275.254 68.100 C 275.170 66.074,274.000 66.354,274.000 68.400 C 274.000 69.280,273.820 70.000,273.600 70.000 C 273.380 70.000,273.200 70.360,273.200 70.800 C 273.200 71.240,273.380 71.600,273.600 71.600 C 273.820 71.600,274.000 71.780,274.000 72.000 C 274.000 72.220,273.717 72.400,273.371 72.400 C 271.809 72.400,271.003 74.557,272.400 75.000 C 272.840 75.140,273.200 75.422,273.200 75.627 C 273.200 75.832,274.550 76.000,276.200 76.000 C 277.933 76.000,279.200 76.169,279.200 76.400 C 279.200 76.661,285.867 76.800,298.400 76.800 C 310.933 76.800,317.600 76.939,317.600 77.200 C 317.600 77.422,318.667 77.600,320.000 77.600 L 322.400 77.600 322.400 80.800 C 322.400 82.667,322.567 84.000,322.800 84.000 C 323.061 84.000,323.200 90.667,323.200 103.200 C 323.200 115.733,323.339 122.400,323.600 122.400 C 323.862 122.400,324.000 129.667,324.000 143.400 C 324.000 164.133,323.990 164.400,323.200 164.400 C 322.760 164.400,322.400 164.580,322.400 164.800 C 322.400 165.020,321.860 165.200,321.200 165.200 C 320.540 165.200,320.000 165.380,320.000 165.600 C 320.000 166.757,318.281 165.618,315.126 162.368 C 313.187 160.370,311.600 158.861,311.600 159.014 C 311.600 159.167,310.385 157.978,308.900 156.370 C 307.415 154.763,303.590 150.880,300.400 147.743 C 297.210 144.605,293.923 141.354,293.095 140.519 C 292.267 139.684,289.002 136.390,285.840 133.200 C 282.678 130.010,278.945 126.319,277.545 124.998 C 276.145 123.678,274.517 122.013,273.926 121.298 C 273.335 120.584,272.630 120.000,272.359 120.000 C 272.088 120.000,271.973 119.894,272.103 119.764 C 272.408 119.458,265.896 112.870,265.500 113.084 C 265.335 113.174,265.200 112.956,265.200 112.600 C 265.200 112.244,265.020 112.064,264.800 112.200 C 264.580 112.336,264.400 112.251,264.400 112.010 C 264.400 111.770,263.770 110.943,263.000 110.173 C 262.230 109.403,261.600 108.888,261.600 109.029 C 261.600 109.170,261.078 108.726,260.440 108.042 C 259.801 107.359,259.081 106.800,258.840 106.800 C 258.598 106.800,258.394 106.575,258.387 106.300 C 258.368 105.529,256.516 103.600,255.796 103.600 C 255.442 103.600,255.245 103.450,255.359 103.267 C 255.472 103.083,255.320 102.933,255.021 102.933 C 254.600 102.933,254.577 103.094,254.918 103.641 C 255.161 104.030,255.504 104.259,255.680 104.151 C 255.856 104.042,256.000 104.233,256.000 104.576 C 256.000 104.919,255.820 105.200,255.600 105.200 C 255.380 105.200,255.200 105.740,255.200 106.400 C 255.200 107.060,255.020 107.600,254.800 107.600 C 254.580 107.600,254.400 107.960,254.400 108.400 C 254.400 108.933,254.133 109.200,253.600 109.200 C 253.156 109.200,252.800 109.467,252.800 109.800 C 252.800 110.130,252.980 110.400,253.200 110.400 C 253.420 110.400,253.600 110.760,253.600 111.200 C 253.600 111.640,253.420 112.000,253.200 112.000 C 252.980 112.000,252.800 111.820,252.800 111.600 C 252.800 111.380,252.440 111.200,252.000 111.200 C 251.104 111.200,250.857 112.610,251.700 112.913 C 252.039 113.035,251.910 113.350,251.300 113.893 C 250.383 114.709,250.076 116.000,250.800 116.000 C 251.020 116.000,251.200 116.360,251.200 116.800 C 251.200 117.240,251.020 117.600,250.800 117.600 C 250.580 117.600,250.400 117.420,250.400 117.200 C 250.400 116.980,250.040 116.800,249.600 116.800 C 248.933 116.800,248.800 117.067,248.800 118.400 C 248.800 119.280,248.620 120.000,248.400 120.000 C 248.180 120.000,248.000 120.360,248.000 120.800 C 248.000 121.240,248.180 121.600,248.400 121.600 C 248.620 121.600,248.800 121.780,248.800 122.000 C 248.800 122.220,248.517 122.400,248.171 122.400 C 246.520 122.400,245.870 124.422,247.300 125.112 C 248.149 125.521,248.126 125.547,246.900 125.573 C 245.659 125.599,244.885 126.791,246.100 126.806 C 246.446 126.810,246.464 126.903,246.160 127.106 C 245.560 127.507,244.583 129.381,245.160 129.025 C 245.408 128.871,245.600 129.025,245.600 129.376 C 245.600 129.747,245.965 130.013,246.500 130.032 C 246.995 130.049,247.191 130.149,246.935 130.253 C 246.679 130.358,248.299 132.292,250.535 134.552 C 252.771 136.812,254.735 138.591,254.900 138.507 C 255.065 138.422,255.200 138.663,255.200 139.043 C 255.200 139.423,255.307 139.626,255.438 139.495 C 255.746 139.187,259.137 142.504,258.918 142.900 C 258.827 143.065,259.021 143.200,259.349 143.200 C 259.678 143.200,260.060 143.560,260.200 144.000 C 260.340 144.440,260.742 144.800,261.094 144.800 C 261.445 144.800,261.632 144.901,261.509 145.024 C 261.286 145.248,273.873 157.966,275.637 159.300 C 276.146 159.685,276.433 160.000,276.274 160.000 C 276.115 160.000,279.453 163.423,283.692 167.607 C 299.928 183.632,301.712 185.600,300.000 185.600 C 299.780 185.600,299.600 186.140,299.600 186.800 C 299.600 187.460,299.420 188.000,299.200 188.000 C 298.980 188.000,298.800 188.540,298.800 189.200 C 298.800 189.860,298.620 190.400,298.400 190.400 C 298.175 190.400,298.000 191.525,298.000 192.976 C 298.000 194.393,297.820 195.664,297.600 195.800 C 297.380 195.936,297.200 197.567,297.200 199.424 C 297.200 201.408,297.365 202.800,297.600 202.800 C 297.823 202.800,298.000 203.875,298.000 205.224 C 298.000 206.737,298.150 207.554,298.400 207.400 C 298.642 207.251,298.800 207.796,298.800 208.776 C 298.800 209.669,298.980 210.400,299.200 210.400 C 299.420 210.400,299.600 210.940,299.600 211.600 C 299.600 212.260,299.780 212.800,300.000 212.800 C 300.220 212.800,300.400 213.160,300.400 213.600 C 300.400 214.040,300.580 214.400,300.800 214.400 C 301.020 214.400,301.200 214.760,301.200 215.200 C 301.200 215.640,301.380 216.000,301.600 216.000 C 301.820 216.000,302.000 216.360,302.000 216.800 C 302.000 217.240,302.180 217.600,302.400 217.600 C 302.620 217.600,302.800 217.888,302.800 218.240 C 302.800 218.591,303.340 219.383,304.000 220.000 C 304.660 220.617,305.204 221.274,305.209 221.460 C 305.225 222.028,307.878 224.789,308.148 224.519 C 308.287 224.380,308.400 224.657,308.400 225.133 C 308.400 225.610,308.220 226.000,308.000 226.000 C 307.780 226.000,307.600 226.360,307.600 226.800 C 307.600 227.240,307.420 227.600,307.200 227.600 C 306.980 227.600,306.800 228.140,306.800 228.800 C 306.800 229.460,306.620 230.000,306.400 230.000 C 306.180 230.000,306.000 230.320,306.000 230.712 C 306.000 231.103,305.640 231.683,305.200 232.000 C 304.760 232.317,304.400 232.897,304.400 233.288 C 304.400 233.680,304.220 234.000,304.000 234.000 C 303.780 234.000,303.600 234.360,303.600 234.800 C 303.600 235.240,303.420 235.600,303.200 235.600 C 302.980 235.600,302.800 235.960,302.800 236.400 C 302.800 236.840,302.620 237.200,302.400 237.200 C 302.180 237.200,302.000 237.520,302.000 237.912 C 302.000 238.303,301.640 238.883,301.200 239.200 C 300.760 239.517,300.400 240.097,300.400 240.488 C 300.400 240.880,300.220 241.200,300.000 241.200 C 299.780 241.200,299.600 241.571,299.600 242.024 C 299.600 242.477,299.440 242.748,299.244 242.627 C 299.048 242.506,298.601 243.011,298.251 243.748 C 297.901 244.486,297.341 245.317,297.007 245.594 C 296.673 245.871,296.400 246.324,296.400 246.600 C 296.400 247.380,295.112 248.326,294.902 247.700 C 294.805 247.414,294.064 247.200,293.167 247.200 C 292.305 247.200,291.600 247.020,291.600 246.800 C 291.600 246.257,275.736 246.257,275.400 246.800 C 275.264 247.020,274.713 247.200,274.176 247.200 C 273.639 247.200,273.200 247.380,273.200 247.600 C 273.200 247.820,272.660 248.000,272.000 248.000 C 271.340 248.000,270.800 248.180,270.800 248.400 C 270.800 250.444,267.050 247.515,259.062 239.233 C 257.488 237.601,253.770 233.876,250.800 230.955 C 244.293 224.554,243.240 223.497,235.631 215.725 C 232.360 212.383,229.575 209.758,229.442 209.891 C 229.309 210.024,229.200 209.833,229.200 209.467 C 229.200 209.100,229.025 208.800,228.811 208.800 C 228.363 208.800,225.478 205.972,224.000 204.084 C 223.450 203.382,222.745 202.806,222.433 202.804 C 222.122 202.802,221.974 202.692,222.106 202.561 C 222.415 202.252,219.896 199.659,219.500 199.880 C 219.335 199.972,219.200 199.844,219.200 199.595 C 219.200 199.016,218.191 198.000,217.616 198.000 C 217.373 198.000,217.056 197.685,216.910 197.300 C 216.552 196.355,215.752 195.581,215.448 195.886 C 215.311 196.022,215.200 195.839,215.200 195.479 C 215.200 195.060,214.983 194.908,214.595 195.057 C 214.163 195.223,214.061 195.106,214.238 194.645 C 214.465 194.053,214.025 193.797,213.070 193.963 C 212.889 193.994,212.842 193.856,212.966 193.655 C 213.369 193.003,212.039 192.201,211.483 192.761 C 211.105 193.142,211.152 193.190,211.700 192.981 C 212.106 192.826,212.400 192.901,212.400 193.157 C 212.400 193.401,212.130 193.600,211.800 193.600 C 211.470 193.600,211.200 193.870,211.200 194.200 C 211.200 194.530,211.020 194.800,210.800 194.800 C 210.580 194.800,210.400 195.160,210.400 195.600 C 210.400 196.040,210.580 196.400,210.800 196.400 C 211.020 196.400,211.200 196.580,211.200 196.800 C 211.200 197.020,211.007 197.200,210.771 197.200 C 210.134 197.200,209.200 198.253,209.200 198.971 C 209.200 199.317,209.380 199.600,209.600 199.600 C 209.820 199.600,210.000 199.780,210.000 200.000 C 210.000 200.220,209.640 200.400,209.200 200.400 C 208.578 200.400,208.400 200.667,208.400 201.600 C 208.400 202.667,208.267 202.800,207.200 202.800 C 206.540 202.800,206.000 202.980,206.000 203.200 C 206.000 203.420,205.820 203.600,205.600 203.600 C 205.380 203.600,205.200 203.240,205.200 202.800 C 205.200 202.360,205.020 202.000,204.800 202.000 C 204.580 202.000,204.400 201.730,204.400 201.400 C 204.400 201.070,204.241 200.800,204.047 200.800 C 203.852 200.800,203.587 200.485,203.458 200.100 C 203.126 199.114,201.785 196.868,201.033 196.037 C 200.685 195.652,200.400 195.166,200.400 194.957 C 200.400 194.748,200.040 194.317,199.600 194.000 C 199.160 193.683,198.800 193.227,198.800 192.987 C 198.800 192.747,198.485 192.202,198.100 191.775 C 197.715 191.349,197.145 190.505,196.832 189.900 C 196.520 189.295,196.115 188.800,195.932 188.800 C 195.750 188.800,195.600 188.530,195.600 188.200 C 195.600 187.870,195.420 187.600,195.200 187.600 C 194.980 187.600,194.800 187.412,194.800 187.183 C 194.800 186.954,194.440 186.380,194.000 185.908 C 193.560 185.436,193.200 184.813,193.200 184.525 C 193.200 184.236,193.020 184.000,192.800 184.000 C 192.580 184.000,192.400 183.730,192.400 183.400 C 192.400 183.070,192.220 182.800,192.000 182.800 C 191.780 182.800,191.600 182.548,191.600 182.241 C 191.600 181.933,190.910 180.538,190.066 179.141 C 188.135 175.943,183.200 165.696,183.200 164.884 C 183.200 164.329,182.214 162.406,181.928 162.403 C 181.515 162.398,182.148 164.312,183.965 168.566 C 185.972 173.264,188.106 177.337,191.841 183.600 C 193.957 187.148,193.755 186.836,197.839 192.845 C 203.259 200.821,205.887 206.355,207.505 213.200 C 208.428 217.103,209.381 223.657,209.134 224.399 C 208.942 224.974,211.343 227.600,212.060 227.600 C 212.320 227.600,212.429 227.705,212.301 227.832 C 211.992 228.141,225.436 241.600,226.053 241.600 C 226.317 241.600,226.430 241.703,226.304 241.830 C 226.178 241.956,231.764 247.749,238.718 254.702 C 245.672 261.656,251.146 267.418,250.881 267.506 C 250.617 267.594,250.400 268.012,250.400 268.433 C 250.400 268.855,250.220 269.200,250.000 269.200 C 249.780 269.200,249.600 269.740,249.600 270.400 C 249.600 271.060,249.420 271.600,249.200 271.600 C 248.980 271.600,248.800 272.320,248.800 273.200 C 248.800 274.080,248.620 274.800,248.400 274.800 C 248.149 274.800,248.000 277.400,248.000 281.800 C 248.000 286.200,248.149 288.800,248.400 288.800 C 248.620 288.800,248.800 289.610,248.800 290.600 C 248.800 291.590,248.980 292.400,249.200 292.400 C 249.757 292.400,249.701 293.739,249.120 294.320 C 248.856 294.584,248.359 294.800,248.016 294.800 C 247.673 294.800,247.168 295.160,246.893 295.600 C 246.618 296.040,246.078 296.400,245.693 296.400 C 245.308 296.400,244.768 296.760,244.493 297.200 C 244.218 297.640,243.725 298.000,243.397 298.000 C 243.068 298.000,242.800 298.180,242.800 298.400 C 242.800 298.620,242.480 298.800,242.088 298.800 C 241.697 298.800,241.117 299.160,240.800 299.600 C 240.483 300.040,239.903 300.400,239.512 300.400 C 239.120 300.400,238.800 300.580,238.800 300.800 C 238.800 301.020,238.440 301.200,238.000 301.200 C 237.560 301.200,237.200 301.380,237.200 301.600 C 237.200 301.820,236.840 302.000,236.400 302.000 C 235.960 302.000,235.600 302.180,235.600 302.400 C 235.600 302.620,235.240 302.800,234.800 302.800 C 234.360 302.800,234.000 302.980,234.000 303.200 C 234.000 303.420,233.640 303.600,233.200 303.600 C 232.760 303.600,232.400 303.780,232.400 304.000 C 232.400 304.220,232.040 304.400,231.600 304.400 C 231.160 304.400,230.800 304.580,230.800 304.800 C 230.800 305.020,230.440 305.200,230.000 305.200 C 229.560 305.200,229.200 305.380,229.200 305.600 C 229.200 305.820,228.855 306.000,228.433 306.000 C 228.012 306.000,227.586 306.225,227.487 306.500 C 227.365 306.839,227.050 306.710,226.507 306.100 C 226.067 305.605,225.537 305.200,225.329 305.200 C 225.122 305.200,224.333 304.484,223.576 303.609 C 222.819 302.734,221.925 302.014,221.588 302.009 C 221.252 302.004,220.717 301.640,220.400 301.200 C 220.083 300.760,219.503 300.400,219.112 300.400 C 218.720 300.400,218.400 300.220,218.400 300.000 C 218.400 299.780,218.040 299.600,217.600 299.600 C 217.160 299.600,216.800 299.420,216.800 299.200 C 216.800 298.980,216.440 298.800,216.000 298.800 C 215.560 298.800,215.200 298.620,215.200 298.400 C 215.200 298.180,214.660 298.000,214.000 298.000 C 213.340 298.000,212.800 297.820,212.800 297.600 C 212.800 297.380,212.260 297.200,211.600 297.200 C 210.940 297.200,210.400 297.020,210.400 296.800 C 210.400 296.580,209.410 296.400,208.200 296.400 C 206.990 296.400,206.000 296.220,206.000 296.000 C 206.000 295.754,204.000 295.600,200.800 295.600 C 197.600 295.600,195.600 295.754,195.600 296.000 C 195.600 296.220,194.790 296.400,193.800 296.400 C 192.810 296.400,192.000 296.580,192.000 296.800 C 192.000 297.020,191.280 297.200,190.400 297.200 C 189.520 297.200,188.800 297.380,188.800 297.600 C 188.800 297.820,188.440 298.000,188.000 298.000 C 187.560 298.000,187.200 298.180,187.200 298.400 C 187.200 299.284,185.853 298.712,184.417 297.218 C 183.581 296.348,182.785 295.748,182.649 295.885 C 182.512 296.021,182.392 295.878,182.382 295.567 C 182.371 295.255,181.643 294.370,180.763 293.600 C 179.884 292.830,178.367 291.435,177.392 290.500 C 176.418 289.565,175.301 288.797,174.911 288.794 C 174.396 288.789,174.340 288.699,174.709 288.465 C 175.254 288.119,174.036 286.309,173.341 286.434 C 172.525 286.580,172.247 286.357,172.800 286.000 C 173.308 285.672,173.289 285.611,172.673 285.606 C 172.127 285.602,172.009 285.799,172.200 286.400 C 172.398 287.024,172.272 287.200,171.627 287.200 C 171.172 287.200,170.800 287.020,170.800 286.800 C 170.800 286.580,170.539 286.400,170.220 286.400 C 169.901 286.400,169.469 286.095,169.260 285.722 C 168.961 285.186,168.323 285.048,166.235 285.067 C 163.708 285.089,163.639 285.065,164.686 284.522 C 165.289 284.209,165.876 283.829,165.991 283.677 C 166.419 283.110,168.697 282.030,168.944 282.277 C 169.085 282.418,169.200 282.343,169.200 282.109 C 169.200 280.740,167.516 281.498,161.474 285.591 C 155.983 289.310,148.000 296.057,148.000 296.979 C 148.000 297.693,149.376 296.958,151.006 295.374 C 152.052 294.357,153.127 293.640,153.430 293.756 C 153.729 293.871,154.081 293.793,154.211 293.583 C 154.341 293.372,154.977 293.200,155.624 293.200 C 156.271 293.200,156.800 293.020,156.800 292.800 C 156.800 292.580,157.430 292.400,158.200 292.400 C 158.970 292.400,159.600 292.220,159.600 292.000 C 159.600 291.780,160.410 291.600,161.400 291.600 C 162.390 291.600,163.200 291.412,163.200 291.182 C 163.200 290.921,163.725 290.862,164.600 291.026 C 165.518 291.199,166.000 291.136,166.000 290.845 C 166.000 290.600,166.180 290.400,166.400 290.400 C 166.620 290.400,166.800 290.655,166.800 290.967 C 166.800 291.278,167.025 291.624,167.300 291.735 C 167.575 291.846,167.035 291.951,166.100 291.968 C 164.434 291.999,163.690 292.847,164.900 293.335 C 165.175 293.446,164.455 293.551,163.300 293.568 C 161.714 293.592,161.200 293.747,161.200 294.200 C 161.200 294.573,160.822 294.800,160.200 294.800 C 159.356 294.800,159.200 294.987,159.200 296.000 C 159.200 296.660,159.380 297.200,159.600 297.200 C 159.820 297.200,160.000 297.380,160.000 297.600 C 160.000 298.557,158.877 297.887,158.660 296.800 C 158.488 295.941,158.190 295.600,157.610 295.600 C 156.705 295.600,156.450 297.008,157.300 297.312 C 157.591 297.416,157.652 297.639,157.445 297.845 C 157.239 298.052,157.016 297.991,156.912 297.700 C 156.611 296.857,155.200 297.104,155.200 298.000 C 155.200 298.522,154.933 298.800,154.433 298.800 C 154.012 298.800,153.562 299.025,153.433 299.300 C 153.247 299.700,153.153 299.700,152.967 299.300 C 152.577 298.466,151.200 298.700,151.200 299.600 C 151.200 300.040,151.378 300.400,151.595 300.400 C 152.216 300.400,153.600 301.720,153.600 302.313 C 153.600 302.607,153.780 302.736,154.000 302.600 C 154.220 302.464,154.400 302.556,154.400 302.805 C 154.400 303.408,155.419 304.400,156.038 304.400 C 156.310 304.400,156.431 304.502,156.306 304.628 C 156.181 304.753,158.671 307.449,161.839 310.619 C 167.286 316.068,168.892 318.400,167.200 318.400 C 166.980 318.400,166.800 318.940,166.800 319.600 C 166.800 320.260,166.620 320.800,166.400 320.800 C 166.180 320.800,166.000 321.520,166.000 322.400 L 166.000 324.000 149.200 324.000 C 138.267 324.000,132.400 323.860,132.400 323.600 C 132.400 322.701,129.267 323.158,128.972 324.100 C 128.817 324.595,128.278 325.903,127.776 327.007 C 125.401 332.221,121.200 345.543,121.200 347.859 C 121.200 347.937,123.540 348.000,126.400 348.000 C 129.600 348.000,131.600 348.154,131.600 348.400 C 131.600 348.661,137.867 348.800,149.600 348.800 C 161.333 348.800,167.600 348.661,167.600 348.400 C 167.600 348.180,167.960 348.000,168.400 348.000 C 168.933 348.000,169.200 348.267,169.200 348.800 C 169.200 349.240,169.380 349.600,169.600 349.600 C 169.820 349.600,170.000 349.920,170.000 350.312 C 170.000 350.703,170.360 351.283,170.800 351.600 C 171.240 351.917,171.600 352.421,171.600 352.720 C 171.600 353.018,172.296 353.932,173.147 354.749 C 173.998 355.566,174.817 356.623,174.967 357.097 C 175.118 357.571,175.637 358.081,176.120 358.229 C 176.604 358.377,177.564 359.107,178.254 359.849 C 178.944 360.592,179.759 361.200,180.066 361.200 C 180.372 361.200,180.883 361.560,181.200 362.000 C 181.517 362.440,182.097 362.800,182.488 362.800 C 182.880 362.800,183.200 362.980,183.200 363.200 C 183.200 363.420,183.560 363.600,184.000 363.600 C 184.440 363.600,184.800 363.780,184.800 364.000 C 184.800 364.220,185.160 364.400,185.600 364.400 C 186.040 364.400,186.400 364.580,186.400 364.800 C 186.400 365.020,186.940 365.200,187.600 365.200 C 188.260 365.200,188.800 365.380,188.800 365.600 C 188.800 365.820,189.340 366.000,190.000 366.000 C 190.660 366.000,191.200 366.180,191.200 366.400 C 191.200 366.620,191.999 366.800,192.976 366.800 C 193.953 366.800,194.864 366.980,195.000 367.200 C 195.146 367.436,197.530 367.600,200.800 367.600 C 204.070 367.600,206.454 367.436,206.600 367.200 C 206.736 366.980,207.647 366.800,208.624 366.800 C 209.601 366.800,210.400 366.620,210.400 366.400 C 210.400 366.180,210.940 366.000,211.600 366.000 C 212.260 366.000,212.800 365.820,212.800 365.600 C 212.800 365.380,213.340 365.200,214.000 365.200 C 214.660 365.200,215.200 365.020,215.200 364.800 C 215.200 364.580,215.560 364.400,216.000 364.400 C 216.440 364.400,216.800 364.220,216.800 364.000 C 216.800 363.780,217.160 363.600,217.600 363.600 C 218.040 363.600,218.400 363.420,218.400 363.200 C 218.400 362.980,218.760 362.800,219.200 362.800 C 219.640 362.800,220.000 362.664,220.000 362.498 C 220.000 362.331,220.495 361.974,221.100 361.704 C 221.705 361.434,222.560 360.671,223.000 360.008 C 223.440 359.345,224.105 358.802,224.477 358.801 C 224.850 358.801,225.435 358.400,225.777 357.911 C 226.120 357.422,226.400 357.160,226.400 357.329 C 226.400 357.498,226.850 357.186,227.400 356.636 C 227.950 356.086,228.400 355.430,228.400 355.179 C 228.400 354.927,228.940 354.217,229.600 353.600 C 230.260 352.983,230.800 352.231,230.800 351.928 C 230.800 351.625,231.160 351.117,231.600 350.800 C 232.040 350.483,232.400 349.903,232.400 349.512 C 232.400 349.120,232.580 348.800,232.800 348.800 C 233.020 348.800,233.200 348.440,233.200 348.000 C 233.200 347.560,233.380 347.200,233.600 347.200 C 233.820 347.200,234.000 346.660,234.000 346.000 C 234.000 345.340,234.180 344.800,234.400 344.800 C 234.620 344.800,234.800 344.260,234.800 343.600 C 234.800 342.940,234.980 342.400,235.200 342.400 C 235.420 342.400,235.600 341.961,235.600 341.424 C 235.600 340.887,235.780 340.336,236.000 340.200 C 236.220 340.064,236.400 338.613,236.400 336.976 C 236.400 335.259,236.569 334.000,236.800 334.000 C 237.020 334.000,237.200 333.177,237.200 332.171 C 237.200 330.284,237.846 329.200,238.971 329.200 C 239.317 329.200,239.600 329.054,239.600 328.875 C 239.600 328.696,240.230 328.302,241.000 328.000 C 241.770 327.698,242.400 327.304,242.400 327.125 C 242.400 326.946,242.760 326.800,243.200 326.800 C 243.640 326.800,244.000 326.620,244.000 326.400 C 244.000 326.180,244.360 326.000,244.800 326.000 C 245.240 326.000,245.600 325.836,245.600 325.635 C 245.600 325.434,246.320 325.149,247.200 325.000 C 248.080 324.851,248.800 324.566,248.800 324.365 C 248.800 324.164,249.160 324.000,249.600 324.000 C 250.040 324.000,250.400 323.820,250.400 323.600 C 250.400 323.380,250.636 323.200,250.925 323.200 C 251.213 323.200,251.798 322.879,252.225 322.487 C 252.651 322.095,253.650 321.468,254.445 321.094 C 255.240 320.721,256.117 320.141,256.394 319.807 C 256.671 319.473,257.236 319.200,257.649 319.200 C 258.062 319.200,258.400 319.020,258.400 318.800 C 258.400 318.580,258.630 318.400,258.912 318.400 C 259.193 318.400,259.683 318.040,260.000 317.600 C 260.317 317.160,260.857 316.800,261.200 316.800 C 261.543 316.800,262.083 316.440,262.400 316.000 C 262.717 315.560,263.257 315.200,263.600 315.200 C 263.943 315.200,264.483 314.840,264.800 314.400 C 265.396 313.574,266.800 313.293,266.800 314.000 C 266.800 314.220,267.340 314.400,268.000 314.400 C 268.660 314.400,269.200 314.580,269.200 314.800 C 269.200 315.020,269.560 315.200,270.000 315.200 C 270.440 315.200,270.800 315.380,270.800 315.600 C 270.800 315.820,271.340 316.000,272.000 316.000 C 272.660 316.000,273.200 316.180,273.200 316.400 C 273.200 316.620,273.931 316.800,274.824 316.800 C 275.804 316.800,276.349 316.958,276.200 317.200 C 276.039 317.461,278.529 317.600,283.376 317.600 C 288.059 317.600,290.800 317.452,290.800 317.200 C 290.800 316.980,291.700 316.800,292.800 316.800 C 293.900 316.800,294.800 316.620,294.800 316.400 C 294.800 316.180,295.340 316.000,296.000 316.000 C 296.660 316.000,297.200 315.820,297.200 315.600 C 297.200 315.380,297.560 315.200,298.000 315.200 C 298.440 315.200,298.800 315.020,298.800 314.800 C 298.800 314.580,299.160 314.400,299.600 314.400 C 300.040 314.400,300.400 314.220,300.400 314.000 C 300.400 313.780,300.760 313.600,301.200 313.600 C 301.640 313.600,302.000 313.420,302.000 313.200 C 302.000 312.980,302.289 312.800,302.642 312.800 C 302.996 312.800,303.636 312.354,304.065 311.808 C 304.494 311.262,305.464 310.523,306.219 310.164 C 306.975 309.806,307.538 309.397,307.471 309.256 C 307.403 309.115,307.765 308.601,308.274 308.114 C 308.783 307.627,309.200 307.296,309.200 307.379 C 309.200 307.461,310.010 306.741,311.000 305.779 C 311.990 304.817,312.800 303.793,312.800 303.503 C 312.800 303.214,313.160 302.717,313.600 302.400 C 314.040 302.083,314.400 301.503,314.400 301.112 C 314.400 300.720,314.580 300.400,314.800 300.400 C 315.020 300.400,315.200 300.040,315.200 299.600 C 315.200 299.160,315.380 298.800,315.600 298.800 C 315.820 298.800,316.000 298.440,316.000 298.000 C 316.000 297.560,316.180 297.200,316.400 297.200 C 316.620 297.200,316.800 296.840,316.800 296.400 C 316.800 295.960,316.980 295.600,317.200 295.600 C 317.420 295.600,317.600 295.060,317.600 294.400 C 317.600 293.740,317.780 293.200,318.000 293.200 C 318.220 293.200,318.400 292.581,318.400 291.824 C 318.400 291.067,318.580 290.336,318.800 290.200 C 319.020 290.064,319.200 288.973,319.200 287.776 C 319.200 286.579,319.380 285.600,319.600 285.600 C 319.835 285.600,320.000 284.208,320.000 282.224 C 320.000 280.367,319.820 278.736,319.600 278.600 C 319.380 278.464,319.200 277.193,319.200 275.776 C 319.200 274.325,319.025 273.200,318.800 273.200 C 318.580 273.200,318.400 272.660,318.400 272.000 C 318.400 271.340,318.220 270.800,318.000 270.800 C 317.780 270.800,317.600 270.260,317.600 269.600 C 317.600 268.940,317.420 268.400,317.200 268.400 C 316.980 268.400,316.800 268.040,316.800 267.600 C 316.800 267.160,316.620 266.800,316.400 266.800 C 316.180 266.800,316.000 266.440,316.000 266.000 C 316.000 265.560,315.820 265.200,315.600 265.200 C 314.893 265.200,315.174 263.796,316.000 263.200 C 316.440 262.883,316.800 262.343,316.800 262.000 C 316.800 261.657,317.160 261.117,317.600 260.800 C 318.040 260.483,318.400 259.915,318.400 259.539 C 318.400 259.162,318.760 258.740,319.200 258.600 C 319.640 258.460,320.000 258.020,320.000 257.622 C 320.000 257.224,320.279 256.666,320.620 256.384 C 320.961 256.101,321.590 255.100,322.019 254.159 C 322.447 253.218,322.978 252.337,323.199 252.201 C 323.420 252.064,323.600 251.623,323.600 251.219 C 323.600 250.816,323.867 250.383,324.193 250.258 C 324.531 250.128,324.685 249.765,324.550 249.415 C 324.421 249.077,324.514 248.800,324.757 248.800 C 325.001 248.800,325.200 248.440,325.200 248.000 C 325.200 247.560,325.380 247.200,325.600 247.200 C 325.820 247.200,326.000 246.840,326.000 246.400 C 326.000 245.960,326.180 245.600,326.400 245.600 C 326.620 245.600,326.800 245.240,326.800 244.800 C 326.800 244.360,326.980 244.000,327.200 244.000 C 327.420 244.000,327.600 243.640,327.600 243.200 C 327.600 242.760,327.735 242.399,327.900 242.399 C 328.065 242.398,328.650 241.408,329.200 240.200 C 329.750 238.992,330.335 238.002,330.500 238.001 C 330.665 238.001,330.800 237.640,330.800 237.200 C 330.800 236.760,330.980 236.400,331.200 236.400 C 331.420 236.400,331.600 236.040,331.600 235.600 C 331.600 234.851,331.867 234.800,335.776 234.800 C 338.129 234.800,340.061 234.625,340.200 234.400 C 340.336 234.180,341.247 234.000,342.224 234.000 C 343.201 234.000,344.000 233.820,344.000 233.600 C 344.000 233.380,344.439 233.200,344.976 233.200 C 345.513 233.200,346.064 233.020,346.200 232.800 C 346.336 232.580,346.797 232.400,347.224 232.400 C 347.651 232.400,348.000 232.220,348.000 232.000 C 348.000 231.780,348.497 231.600,349.104 231.600 C 349.774 231.600,350.404 231.286,350.707 230.800 C 350.982 230.360,351.565 230.000,352.003 230.000 C 352.442 230.000,352.800 229.820,352.800 229.600 C 352.800 229.380,353.083 229.200,353.429 229.200 C 354.174 229.200,355.269 228.203,354.914 227.848 C 354.778 227.711,354.923 227.600,355.237 227.600 C 355.551 227.600,356.032 227.240,356.307 226.800 C 356.582 226.360,357.041 226.000,357.327 226.000 C 357.613 226.000,358.465 225.296,359.219 224.435 C 359.973 223.575,360.728 222.955,360.895 223.059 C 361.063 223.162,361.200 222.799,361.200 222.251 C 361.200 221.616,361.482 221.165,361.975 221.008 C 362.401 220.873,362.985 220.231,363.273 219.581 C 363.560 218.931,363.931 218.400,364.098 218.400 C 364.264 218.400,364.400 218.080,364.400 217.688 C 364.400 217.297,364.760 216.717,365.200 216.400 C 365.640 216.083,366.000 215.503,366.000 215.112 C 366.000 214.720,366.180 214.400,366.400 214.400 C 366.620 214.400,366.800 213.871,366.800 213.224 C 366.800 212.577,366.980 211.936,367.200 211.800 C 367.420 211.664,367.600 211.113,367.600 210.576 C 367.600 210.039,367.780 209.600,368.000 209.600 C 368.220 209.600,368.400 208.880,368.400 208.000 C 368.400 207.120,368.580 206.400,368.800 206.400 C 369.052 206.400,369.200 203.733,369.200 199.200 C 369.200 194.667,369.052 192.000,368.800 192.000 C 368.580 192.000,368.400 191.280,368.400 190.400 C 368.400 189.520,368.220 188.800,368.000 188.800 C 367.780 188.800,367.600 188.260,367.600 187.600 C 367.600 186.940,367.420 186.400,367.200 186.400 C 366.980 186.400,366.800 185.860,366.800 185.200 C 366.800 184.540,366.654 184.000,366.475 184.000 C 366.296 184.000,365.901 183.366,365.597 182.591 C 365.293 181.817,364.719 180.889,364.322 180.529 C 363.925 180.170,363.600 179.662,363.600 179.400 C 363.600 179.138,363.240 178.598,362.800 178.200 C 362.360 177.802,362.000 177.144,362.000 176.738 C 362.000 176.332,361.825 176.000,361.611 176.000 C 361.398 176.000,360.075 174.830,358.673 173.400 C 357.271 171.970,355.932 170.800,355.698 170.800 C 355.463 170.800,354.817 170.260,354.261 169.600 C 353.706 168.940,352.970 168.400,352.626 168.400 C 352.282 168.400,352.000 168.220,352.000 168.000 C 352.000 167.780,351.640 167.600,351.200 167.600 C 350.760 167.600,350.400 167.420,350.400 167.200 C 350.400 166.980,350.040 166.800,349.600 166.800 C 348.809 166.800,348.800 166.533,348.800 143.800 C 348.800 128.733,348.662 120.800,348.400 120.800 C 348.139 120.800,348.000 114.133,348.000 101.600 C 348.000 89.067,347.861 82.400,347.600 82.400 C 347.378 82.400,347.200 81.333,347.200 80.000 L 347.200 77.600 352.400 77.600 C 355.600 77.600,357.600 77.754,357.600 78.000 C 357.600 78.261,363.925 78.400,375.776 78.400 C 387.463 78.400,394.041 78.543,394.200 78.800 C 394.336 79.020,395.697 79.200,397.224 79.200 L 400.000 79.200 400.000 66.800 L 400.000 54.400 396.600 54.400 C 394.600 54.400,393.200 54.235,393.200 54.000 C 393.200 53.739,386.600 53.600,374.200 53.600 C 361.800 53.600,355.200 53.461,355.200 53.200 C 355.200 52.960,353.600 52.800,351.200 52.800 L 347.200 52.800 347.200 48.400 C 347.200 45.733,347.042 44.000,346.800 44.000 C 346.539 44.000,346.400 37.400,346.400 25.000 C 346.400 12.600,346.261 6.000,346.000 6.000 C 345.769 6.000,345.600 4.733,345.600 3.000 L 345.600 0.000 333.200 0.000 L 320.800 0.000 320.800 3.576 M111.200 12.385 C 110.870 12.545,110.197 12.884,109.705 13.138 C 109.213 13.392,108.348 13.600,107.782 13.600 C 107.198 13.600,106.860 13.773,107.000 14.000 C 107.208 14.337,105.772 14.617,104.700 14.447 C 104.535 14.421,104.400 14.580,104.400 14.800 C 104.400 15.020,103.849 15.200,103.176 15.200 C 102.463 15.200,102.056 15.367,102.200 15.600 C 102.347 15.838,101.871 16.000,101.024 16.000 C 100.241 16.000,99.600 16.180,99.600 16.400 C 99.600 16.620,99.060 16.800,98.400 16.800 C 97.740 16.800,97.200 16.980,97.200 17.200 C 97.200 17.420,96.761 17.600,96.224 17.600 C 95.687 17.600,95.136 17.780,95.000 18.000 C 94.864 18.220,94.223 18.400,93.576 18.400 C 92.929 18.400,92.400 18.580,92.400 18.800 C 92.400 19.020,92.027 19.200,91.571 19.200 C 91.116 19.200,90.486 19.457,90.171 19.771 C 89.522 20.421,89.393 22.400,90.000 22.400 C 90.220 22.400,90.400 22.951,90.400 23.624 C 90.400 24.337,90.567 24.744,90.800 24.600 C 91.033 24.456,91.200 24.863,91.200 25.576 C 91.200 26.249,91.380 26.800,91.600 26.800 C 91.820 26.800,92.000 27.340,92.000 28.000 C 92.000 28.660,92.203 29.200,92.450 29.200 C 92.737 29.200,92.813 29.636,92.660 30.400 C 92.525 31.077,92.590 31.600,92.810 31.600 C 93.025 31.600,93.200 32.039,93.200 32.576 C 93.200 33.113,93.380 33.664,93.600 33.800 C 93.820 33.936,94.000 34.577,94.000 35.224 C 94.000 35.871,94.180 36.400,94.400 36.400 C 94.620 36.400,94.800 36.940,94.800 37.600 C 94.800 38.260,94.980 38.800,95.200 38.800 C 95.420 38.800,95.600 39.239,95.600 39.776 C 95.600 40.313,95.780 40.864,96.000 41.000 C 96.220 41.136,96.400 41.687,96.400 42.224 C 96.400 42.761,96.580 43.200,96.800 43.200 C 97.020 43.200,97.200 43.740,97.200 44.400 C 97.200 45.840,96.707 45.823,102.288 44.572 C 108.915 43.086,112.692 41.818,117.830 39.356 C 119.386 38.610,120.871 38.000,121.130 38.000 C 121.388 38.000,121.600 37.820,121.600 37.600 C 121.600 36.969,120.548 37.130,119.000 38.000 C 118.217 38.440,117.311 38.800,116.988 38.800 C 116.665 38.800,116.400 38.980,116.400 39.200 C 116.400 39.420,116.040 39.600,115.600 39.600 C 115.160 39.600,114.800 39.780,114.800 40.000 C 114.800 40.220,114.260 40.400,113.600 40.400 C 112.940 40.400,112.400 40.580,112.400 40.800 C 112.400 41.020,111.860 41.200,111.200 41.200 C 110.540 41.200,110.000 41.380,110.000 41.600 C 110.000 41.820,109.415 41.973,108.700 41.940 C 107.490 41.884,107.476 41.869,108.500 41.713 C 109.537 41.556,110.032 40.624,109.233 40.333 C 108.500 40.066,108.246 37.200,108.955 37.200 C 109.678 37.200,109.856 35.752,109.162 35.521 C 108.450 35.283,108.323 29.200,109.030 29.200 C 109.666 29.200,109.823 27.743,109.209 27.533 C 108.459 27.278,108.225 24.800,108.950 24.800 C 109.677 24.800,109.860 23.353,109.162 23.121 C 108.450 22.883,108.323 16.800,109.030 16.800 C 109.732 16.800,109.789 15.355,109.100 15.033 C 108.700 14.847,108.700 14.753,109.100 14.567 C 109.375 14.438,109.600 14.110,109.600 13.837 C 109.600 13.564,110.275 13.173,111.100 12.967 C 111.925 12.761,112.420 12.480,112.200 12.343 C 111.980 12.206,111.530 12.225,111.200 12.385 M114.854 18.276 C 114.825 18.758,114.980 19.264,115.200 19.400 C 115.420 19.536,115.600 20.076,115.600 20.600 C 115.600 21.124,115.742 21.641,115.916 21.748 C 116.090 21.856,116.161 21.327,116.073 20.572 C 115.985 19.817,115.765 19.200,115.584 19.200 C 115.403 19.200,115.178 18.795,115.082 18.300 C 114.909 17.400,114.909 17.400,114.854 18.276 M199.235 32.329 C 198.710 33.138,197.459 34.915,196.456 36.278 C 195.453 37.641,194.265 39.378,193.816 40.136 C 187.566 50.704,185.125 55.507,182.201 63.000 C 181.171 65.640,180.185 68.160,180.011 68.600 C 179.838 69.040,179.292 70.750,178.799 72.400 C 178.307 74.050,177.766 75.850,177.598 76.400 C 176.979 78.429,176.042 82.082,175.240 85.600 C 174.629 88.277,174.263 91.845,174.635 91.486 C 174.814 91.314,175.095 90.234,175.259 89.086 C 175.423 87.939,175.747 86.145,175.979 85.100 C 176.210 84.055,176.566 82.435,176.770 81.500 C 176.973 80.565,177.323 79.170,177.547 78.400 C 177.771 77.630,178.126 76.370,178.334 75.600 C 180.533 67.481,186.597 53.195,190.813 46.200 C 191.476 45.100,192.136 43.930,192.281 43.600 C 192.425 43.270,193.996 40.864,195.771 38.252 C 199.954 32.102,200.527 31.194,200.343 31.010 C 200.259 30.926,199.761 31.519,199.235 32.329 M49.737 33.481 L 48.873 34.546 50.666 35.682 C 51.651 36.308,53.700 37.445,55.219 38.210 C 59.839 40.536,59.901 40.161,55.633 35.700 C 52.140 32.049,51.187 31.691,49.737 33.481 M271.800 51.410 C 272.621 51.712,278.321 51.796,278.141 51.504 C 278.037 51.337,276.478 51.214,274.676 51.232 C 272.874 51.249,271.580 51.329,271.800 51.410 M253.417 101.572 C 253.144 102.014,253.775 102.492,254.144 102.122 C 254.525 101.742,254.454 101.200,254.024 101.200 C 253.817 101.200,253.544 101.368,253.417 101.572 M203.000 183.600 C 203.398 184.040,203.904 184.400,204.123 184.400 C 204.343 184.400,204.107 184.040,203.600 183.600 C 203.093 183.160,202.587 182.800,202.477 182.800 C 202.366 182.800,202.602 183.160,203.000 183.600 M168.400 293.000 C 168.400 293.330,168.220 293.600,168.000 293.600 C 167.780 293.600,167.600 293.330,167.600 293.000 C 167.600 292.670,167.780 292.400,168.000 292.400 C 168.220 292.400,168.400 292.670,168.400 293.000 M149.542 297.550 C 149.004 297.754,148.979 297.888,149.406 298.282 C 149.817 298.662,149.980 298.629,150.173 298.125 C 150.479 297.330,150.374 297.235,149.542 297.550 "
              stroke="none" fill="#fc844c" fill-rule="evenodd"></path>
        <path id="path2"
              d="M112.195 12.392 C 112.449 12.802,110.185 13.361,109.637 13.023 C 109.427 12.893,109.125 12.998,108.966 13.255 C 108.785 13.548,108.850 13.616,109.138 13.438 C 109.408 13.272,109.600 13.399,109.600 13.743 C 109.600 14.068,109.375 14.438,109.100 14.567 C 108.700 14.753,108.700 14.847,109.100 15.033 C 109.789 15.355,109.732 16.800,109.030 16.800 C 108.323 16.800,108.450 22.883,109.162 23.121 C 109.860 23.353,109.677 24.800,108.950 24.800 C 108.225 24.800,108.459 27.278,109.209 27.533 C 109.823 27.743,109.666 29.200,109.030 29.200 C 108.323 29.200,108.450 35.283,109.162 35.521 C 109.856 35.752,109.678 37.200,108.955 37.200 C 108.246 37.200,108.500 40.066,109.233 40.333 C 110.032 40.624,109.537 41.556,108.500 41.713 C 107.476 41.869,107.490 41.884,108.700 41.940 C 109.415 41.973,110.000 41.820,110.000 41.600 C 110.000 41.380,110.540 41.200,111.200 41.200 C 111.860 41.200,112.400 41.020,112.400 40.800 C 112.400 40.580,112.940 40.400,113.600 40.400 C 114.260 40.400,114.800 40.220,114.800 40.000 C 114.800 39.780,115.160 39.600,115.600 39.600 C 116.040 39.600,116.400 39.420,116.400 39.200 C 116.400 38.980,116.665 38.800,116.988 38.800 C 117.311 38.800,118.217 38.440,119.000 38.000 C 119.783 37.560,120.689 37.200,121.012 37.200 C 121.675 37.200,121.812 36.178,121.200 35.800 C 120.980 35.664,120.800 35.124,120.800 34.600 C 120.800 34.076,120.620 33.536,120.400 33.400 C 120.180 33.264,120.000 32.713,120.000 32.176 C 120.000 31.639,119.820 31.200,119.600 31.200 C 119.380 31.200,119.200 30.660,119.200 30.000 C 119.200 29.340,119.020 28.800,118.800 28.800 C 118.580 28.800,118.400 28.271,118.400 27.624 C 118.400 26.977,118.220 26.336,118.000 26.200 C 117.780 26.064,117.600 25.513,117.600 24.976 C 117.600 24.439,117.420 24.000,117.200 24.000 C 116.980 24.000,116.800 23.460,116.800 22.800 C 116.800 22.065,116.610 21.639,116.309 21.700 C 116.040 21.755,115.752 21.350,115.671 20.800 C 115.590 20.250,115.340 19.577,115.117 19.305 C 114.894 19.033,114.824 18.358,114.963 17.805 C 115.140 17.101,115.052 16.800,114.672 16.800 C 114.321 16.800,114.154 16.382,114.199 15.617 C 114.238 14.966,114.119 14.527,113.935 14.640 C 113.666 14.806,113.426 13.479,113.525 12.383 C 113.536 12.264,113.193 12.140,112.764 12.107 C 112.334 12.075,112.078 12.203,112.195 12.392 M199.800 32.162 C 199.360 32.911,197.547 35.655,195.771 38.261 C 193.996 40.868,192.425 43.270,192.281 43.600 C 192.136 43.930,191.476 45.100,190.813 46.200 C 186.653 53.102,180.685 67.117,178.379 75.400 C 178.195 76.060,177.841 77.320,177.592 78.200 C 177.156 79.741,176.710 81.669,176.203 84.200 C 176.070 84.860,175.799 86.030,175.601 86.800 C 174.560 90.831,175.953 94.800,178.408 94.800 C 178.667 94.800,179.383 95.340,180.000 96.000 C 180.617 96.660,181.409 97.200,181.760 97.200 C 182.112 97.200,182.400 97.380,182.400 97.600 C 182.400 97.820,182.760 98.000,183.200 98.000 C 183.640 98.000,184.000 98.180,184.000 98.400 C 184.000 98.620,184.360 98.800,184.800 98.800 C 185.240 98.800,185.600 98.980,185.600 99.200 C 185.600 99.420,185.960 99.600,186.400 99.600 C 186.840 99.600,187.200 99.780,187.200 100.000 C 187.200 100.220,187.740 100.400,188.400 100.400 C 189.060 100.400,189.600 100.580,189.600 100.800 C 189.600 101.020,190.230 101.200,191.000 101.200 C 191.770 101.200,192.400 101.380,192.400 101.600 C 192.400 101.829,193.600 102.000,195.200 102.000 C 196.800 102.000,198.000 102.171,198.000 102.400 C 198.000 102.629,199.200 102.800,200.800 102.800 C 202.400 102.800,203.600 102.629,203.600 102.400 C 203.600 102.174,204.733 102.000,206.200 102.000 C 207.667 102.000,208.800 101.826,208.800 101.600 C 208.800 101.380,209.520 101.200,210.400 101.200 C 211.280 101.200,212.000 101.020,212.000 100.800 C 212.000 100.580,212.540 100.400,213.200 100.400 C 213.860 100.400,214.400 100.220,214.400 100.000 C 214.400 98.809,216.224 100.033,219.700 103.556 C 221.845 105.729,223.600 107.414,223.600 107.300 C 223.600 107.186,223.999 107.599,224.487 108.220 C 224.975 108.840,226.348 110.259,227.538 111.374 C 229.873 113.560,230.056 113.743,234.086 117.914 C 235.563 119.444,236.868 120.598,236.986 120.481 C 237.104 120.363,237.200 120.577,237.200 120.957 C 237.200 121.337,237.380 121.536,237.600 121.400 C 237.820 121.264,238.000 121.343,238.000 121.576 C 238.000 121.809,238.264 122.000,238.587 122.000 C 238.976 122.000,239.090 122.237,238.924 122.700 C 238.786 123.085,238.806 123.280,238.969 123.134 C 239.272 122.862,242.400 125.844,242.400 126.405 C 242.400 126.945,243.540 127.176,243.743 126.678 C 243.849 126.415,243.951 126.616,243.968 127.124 C 243.986 127.632,244.180 127.936,244.400 127.800 C 244.620 127.664,244.800 127.823,244.800 128.153 C 244.800 128.483,244.978 128.863,245.195 128.997 C 245.414 129.133,245.493 128.988,245.372 128.672 C 245.252 128.359,245.447 127.810,245.806 127.452 C 246.164 127.093,246.264 126.800,246.029 126.800 C 244.855 126.800,245.708 125.598,246.900 125.573 C 248.126 125.547,248.149 125.521,247.300 125.112 C 245.870 124.422,246.520 122.400,248.171 122.400 C 248.517 122.400,248.800 122.220,248.800 122.000 C 248.800 121.780,248.620 121.600,248.400 121.600 C 248.180 121.600,248.000 121.240,248.000 120.800 C 248.000 120.360,248.180 120.000,248.400 120.000 C 248.620 120.000,248.800 119.280,248.800 118.400 C 248.800 117.067,248.933 116.800,249.600 116.800 C 250.040 116.800,250.400 116.980,250.400 117.200 C 250.400 117.420,250.580 117.600,250.800 117.600 C 251.020 117.600,251.200 117.240,251.200 116.800 C 251.200 116.360,251.020 116.000,250.800 116.000 C 250.076 116.000,250.383 114.709,251.300 113.893 C 251.910 113.350,252.039 113.035,251.700 112.913 C 250.857 112.610,251.104 111.200,252.000 111.200 C 252.440 111.200,252.800 111.380,252.800 111.600 C 252.800 111.820,252.980 112.000,253.200 112.000 C 253.420 112.000,253.600 111.640,253.600 111.200 C 253.600 110.760,253.420 110.400,253.200 110.400 C 252.980 110.400,252.800 110.130,252.800 109.800 C 252.800 109.467,253.156 109.200,253.600 109.200 C 254.133 109.200,254.400 108.933,254.400 108.400 C 254.400 107.960,254.580 107.600,254.800 107.600 C 255.020 107.600,255.200 107.060,255.200 106.400 C 255.200 105.740,255.380 105.200,255.600 105.200 C 255.820 105.200,256.000 104.919,256.000 104.576 C 256.000 104.233,255.856 104.042,255.680 104.151 C 255.504 104.259,255.131 103.981,254.851 103.532 C 254.569 103.082,254.533 102.835,254.770 102.982 C 255.009 103.129,255.200 102.959,255.200 102.598 C 255.200 102.155,254.915 101.989,254.300 102.075 C 253.629 102.168,253.430 102.022,253.518 101.500 C 253.582 101.115,253.447 100.800,253.218 100.800 C 252.988 100.800,252.800 100.654,252.800 100.475 C 252.800 99.969,246.878 94.055,246.625 94.308 C 246.501 94.432,246.400 94.223,246.400 93.843 C 246.400 93.463,246.220 93.264,246.000 93.400 C 245.780 93.536,245.600 93.367,245.600 93.024 C 245.600 92.681,245.422 92.400,245.204 92.400 C 244.985 92.400,242.375 89.929,239.404 86.908 C 234.604 82.030,233.133 80.000,234.400 80.000 C 234.620 80.000,234.800 79.460,234.800 78.800 C 234.800 78.140,234.980 77.600,235.200 77.600 C 235.420 77.600,235.600 77.240,235.600 76.800 C 235.600 76.011,235.867 76.000,254.400 76.000 C 271.781 76.000,274.989 75.822,272.400 75.000 C 271.003 74.557,271.809 72.400,273.371 72.400 C 273.717 72.400,274.000 72.220,274.000 72.000 C 274.000 71.780,273.820 71.600,273.600 71.600 C 273.380 71.600,273.200 71.240,273.200 70.800 C 273.200 70.360,273.380 70.000,273.600 70.000 C 273.820 70.000,274.000 69.280,274.000 68.400 C 274.000 66.354,275.170 66.074,275.254 68.100 C 275.294 69.040,275.357 69.151,275.482 68.500 C 275.578 68.005,275.823 67.600,276.028 67.600 C 276.233 67.600,276.400 67.240,276.400 66.800 C 276.400 66.360,276.220 66.000,276.000 66.000 C 275.276 66.000,275.583 64.709,276.500 63.893 C 277.110 63.350,277.239 63.035,276.900 62.913 C 276.192 62.659,276.277 61.200,277.000 61.200 C 277.330 61.200,277.600 61.380,277.600 61.600 C 277.600 61.820,277.780 62.000,278.000 62.000 C 278.220 62.000,278.400 61.645,278.400 61.211 C 278.400 60.665,278.800 60.307,279.700 60.048 C 280.702 59.758,280.794 59.664,280.100 59.636 C 279.184 59.599,278.693 57.600,279.600 57.600 C 279.820 57.600,280.000 57.060,280.000 56.400 C 280.000 55.467,280.178 55.200,280.800 55.200 C 281.240 55.200,281.600 55.020,281.600 54.800 C 281.600 54.580,281.420 54.400,281.200 54.400 C 280.980 54.400,280.800 54.040,280.800 53.600 C 280.800 53.135,280.507 52.767,280.100 52.721 C 279.715 52.677,281.380 52.533,283.800 52.400 L 288.200 52.158 283.076 52.079 C 279.396 52.022,278.031 51.873,278.231 51.549 C 278.424 51.238,278.312 51.209,277.870 51.457 C 277.518 51.654,275.739 51.691,273.915 51.539 C 272.092 51.388,262.230 51.248,252.000 51.229 L 233.400 51.194 232.900 50.117 C 232.625 49.525,232.400 48.850,232.400 48.616 C 232.400 48.383,232.040 47.968,231.600 47.693 C 231.160 47.418,230.800 46.953,230.800 46.659 C 230.800 46.365,230.440 45.798,230.000 45.400 C 229.560 45.002,229.198 44.389,229.196 44.038 C 229.194 43.687,228.620 42.950,227.920 42.400 C 226.207 41.054,224.800 39.633,224.800 39.249 C 224.800 39.077,224.305 38.681,223.700 38.370 C 223.095 38.060,222.309 37.489,221.953 37.103 C 221.597 36.716,221.052 36.400,220.741 36.400 C 220.431 36.400,219.917 36.040,219.600 35.600 C 219.283 35.160,218.703 34.800,218.312 34.800 C 217.920 34.800,217.600 34.620,217.600 34.400 C 217.600 34.180,217.240 34.000,216.800 34.000 C 216.360 34.000,216.000 33.820,216.000 33.600 C 216.000 33.380,215.460 33.200,214.800 33.200 C 214.140 33.200,213.600 33.020,213.600 32.800 C 213.600 32.580,213.060 32.400,212.400 32.400 C 211.740 32.400,211.200 32.220,211.200 32.000 C 211.200 31.780,210.570 31.600,209.800 31.600 C 209.030 31.600,208.400 31.420,208.400 31.200 C 208.400 30.961,206.834 30.800,204.500 30.801 L 200.600 30.802 199.800 32.162 M289.905 52.283 C 290.402 52.379,291.122 52.375,291.505 52.275 C 291.887 52.175,291.480 52.096,290.600 52.101 C 289.720 52.105,289.407 52.187,289.905 52.283 M182.400 163.127 C 182.400 163.361,182.580 163.664,182.800 163.800 C 183.020 163.936,183.200 164.309,183.200 164.628 C 183.200 165.671,187.786 175.366,190.066 179.141 C 190.910 180.538,191.600 181.933,191.600 182.241 C 191.600 182.548,191.780 182.800,192.000 182.800 C 192.220 182.800,192.400 183.070,192.400 183.400 C 192.400 183.730,192.580 184.000,192.800 184.000 C 193.020 184.000,193.200 184.236,193.200 184.525 C 193.200 184.813,193.560 185.436,194.000 185.908 C 194.440 186.380,194.800 186.954,194.800 187.183 C 194.800 187.412,194.980 187.600,195.200 187.600 C 195.420 187.600,195.600 187.870,195.600 188.200 C 195.600 188.530,195.750 188.800,195.932 188.800 C 196.115 188.800,196.520 189.295,196.832 189.900 C 197.145 190.505,197.715 191.349,198.100 191.775 C 198.485 192.202,198.800 192.747,198.800 192.987 C 198.800 193.227,199.160 193.683,199.600 194.000 C 200.040 194.317,200.400 194.748,200.400 194.957 C 200.400 195.166,200.685 195.652,201.033 196.037 C 201.785 196.868,203.126 199.114,203.458 200.100 C 203.587 200.485,203.852 200.800,204.047 200.800 C 204.241 200.800,204.400 201.070,204.400 201.400 C 204.400 201.730,204.580 202.000,204.800 202.000 C 205.020 202.000,205.200 202.360,205.200 202.800 C 205.200 203.240,205.380 203.600,205.600 203.600 C 205.820 203.600,206.000 203.420,206.000 203.200 C 206.000 202.980,206.540 202.800,207.200 202.800 C 208.267 202.800,208.400 202.667,208.400 201.600 C 208.400 200.667,208.578 200.400,209.200 200.400 C 209.640 200.400,210.000 200.220,210.000 200.000 C 210.000 199.780,209.820 199.600,209.600 199.600 C 209.380 199.600,209.200 199.317,209.200 198.971 C 209.200 198.253,210.134 197.200,210.771 197.200 C 211.007 197.200,211.200 197.020,211.200 196.800 C 211.200 196.580,211.020 196.400,210.800 196.400 C 210.580 196.400,210.400 196.040,210.400 195.600 C 210.400 195.160,210.580 194.800,210.800 194.800 C 211.020 194.800,211.200 194.530,211.200 194.200 C 211.200 193.870,211.470 193.600,211.800 193.600 C 212.130 193.600,212.400 193.401,212.400 193.157 C 212.400 192.911,212.109 192.826,211.743 192.966 C 211.170 193.186,211.157 193.132,211.643 192.540 C 212.141 191.933,212.107 191.885,211.330 192.085 C 210.724 192.241,210.520 192.153,210.657 191.795 C 210.766 191.512,210.224 190.651,209.454 189.881 C 208.684 189.110,208.176 188.357,208.327 188.207 C 208.477 188.056,208.420 187.991,208.200 188.062 C 207.980 188.133,206.560 186.978,205.045 185.496 C 203.530 184.013,202.404 182.800,202.543 182.800 C 202.859 182.800,198.079 178.249,197.571 178.067 C 197.367 177.993,197.200 177.668,197.200 177.343 C 197.200 177.018,197.020 176.864,196.800 177.000 C 196.580 177.136,196.400 176.956,196.400 176.600 C 196.400 176.244,196.220 176.064,196.000 176.200 C 195.780 176.336,195.600 176.167,195.600 175.824 C 195.600 175.481,195.421 175.200,195.203 175.200 C 194.821 175.200,193.316 173.727,186.766 166.942 C 183.187 163.235,182.400 162.547,182.400 163.127 M167.374 282.741 C 166.728 283.103,166.106 283.524,165.991 283.677 C 165.876 283.829,165.289 284.209,164.686 284.522 C 163.639 285.065,163.708 285.089,166.235 285.067 C 168.323 285.048,168.961 285.186,169.260 285.722 C 169.469 286.095,169.901 286.400,170.220 286.400 C 170.539 286.400,170.800 286.580,170.800 286.800 C 170.800 287.020,171.130 287.200,171.533 287.200 C 172.731 287.200,172.540 284.922,171.317 284.615 C 170.795 284.484,170.449 284.245,170.548 284.084 C 171.261 282.930,168.853 281.911,167.374 282.741 M166.000 290.845 C 166.000 291.136,165.518 291.199,164.600 291.026 C 163.725 290.862,163.200 290.921,163.200 291.182 C 163.200 291.412,162.390 291.600,161.400 291.600 C 160.410 291.600,159.600 291.780,159.600 292.000 C 159.600 292.220,158.970 292.400,158.200 292.400 C 157.430 292.400,156.800 292.580,156.800 292.800 C 156.800 293.020,156.271 293.200,155.624 293.200 C 154.977 293.200,154.341 293.372,154.211 293.583 C 154.081 293.793,153.732 293.872,153.436 293.758 C 153.136 293.643,151.944 294.477,150.749 295.636 C 149.128 297.207,148.825 297.664,149.516 297.493 C 150.310 297.297,150.396 297.382,150.159 298.130 C 149.907 298.924,149.943 298.946,150.608 298.397 C 151.283 297.840,151.299 297.860,150.851 298.700 C 150.543 299.278,150.520 299.600,150.786 299.600 C 151.014 299.600,151.200 299.420,151.200 299.200 C 151.200 298.623,152.690 298.707,152.967 299.300 C 153.153 299.700,153.247 299.700,153.433 299.300 C 153.562 299.025,154.012 298.800,154.433 298.800 C 154.933 298.800,155.200 298.522,155.200 298.000 C 155.200 297.104,156.611 296.857,156.912 297.700 C 157.016 297.991,157.239 298.052,157.445 297.845 C 157.652 297.639,157.591 297.416,157.300 297.312 C 156.450 297.008,156.705 295.600,157.610 295.600 C 158.190 295.600,158.488 295.941,158.660 296.800 C 158.877 297.887,160.000 298.557,160.000 297.600 C 160.000 297.380,159.820 297.200,159.600 297.200 C 159.380 297.200,159.200 296.660,159.200 296.000 C 159.200 294.987,159.356 294.800,160.200 294.800 C 160.822 294.800,161.200 294.573,161.200 294.200 C 161.200 293.747,161.714 293.592,163.300 293.568 C 164.455 293.551,165.175 293.446,164.900 293.335 C 163.690 292.847,164.434 291.999,166.100 291.968 C 167.035 291.951,167.575 291.846,167.300 291.735 C 167.025 291.624,166.800 291.278,166.800 290.967 C 166.800 290.655,166.620 290.400,166.400 290.400 C 166.180 290.400,166.000 290.600,166.000 290.845 M167.600 293.000 C 167.600 293.330,167.780 293.600,168.000 293.600 C 168.220 293.600,168.400 293.330,168.400 293.000 C 168.400 292.670,168.220 292.400,168.000 292.400 C 167.780 292.400,167.600 292.670,167.600 293.000 "
              stroke="none" fill="#fc974c" fill-rule="evenodd"></path>
    </g>
</svg>
